<mxfile host="app.diagrams.net" modified="2024-02-16T01:12:35.930Z" agent="Mozilla/5.0 (Windows NT 10.0; Win64; x64) AppleWebKit/537.36 (KHTML, like Gecko) Chrome/121.0.0.0 Safari/537.36" version="23.1.5" etag="L6X8Qaw8oyv4t_OIlB8n" type="github">
  <diagram name="Page-1" id="R-84PW3a17MDLsfTu2iG">
    <mxGraphModel>
      <root>
        <mxCell id="0" />
        <mxCell id="1" parent="0" />
      </root>
    </mxGraphModel>
  </diagram>
</mxfile>
